<mxfile host="app.diagrams.net" modified="2023-12-11T20:06:05.741Z" agent="Mozilla/5.0 (Windows NT 10.0; Win64; x64) AppleWebKit/537.36 (KHTML, like Gecko) Chrome/119.0.0.0 Safari/537.36" etag="afN4as-50fHcyNXJif4P" version="22.1.7" type="device">
  <diagram name="PÃ gina-1" id="Fow8gVu0nJmabkFb7b3C">
    <mxGraphModel dx="1434" dy="746" grid="1" gridSize="10" guides="1" tooltips="1" connect="1" arrows="1" fold="1" page="1" pageScale="1" pageWidth="827" pageHeight="1169" math="0" shadow="0">
      <root>
        <mxCell id="0" />
        <mxCell id="1" parent="0" />
        <mxCell id="h1wcEg4PGX9SEeVJDHGu-10" value="Susp R L" style="rounded=0;whiteSpace=wrap;html=1;" vertex="1" parent="1">
          <mxGeometry x="50" y="60" width="120" height="60" as="geometry" />
        </mxCell>
        <mxCell id="h1wcEg4PGX9SEeVJDHGu-11" value="Susp R R" style="rounded=0;whiteSpace=wrap;html=1;" vertex="1" parent="1">
          <mxGeometry x="50" y="140" width="120" height="60" as="geometry" />
        </mxCell>
        <mxCell id="h1wcEg4PGX9SEeVJDHGu-13" value="Shield&lt;br&gt;Pin headers" style="rounded=0;whiteSpace=wrap;html=1;" vertex="1" parent="1">
          <mxGeometry x="390" y="60" width="120" height="470" as="geometry" />
        </mxCell>
        <mxCell id="h1wcEg4PGX9SEeVJDHGu-41" value="&lt;h1&gt;&lt;font style=&quot;font-size: 31px;&quot; face=&quot;Courier New&quot;&gt;ETRX_RECU&lt;/font&gt;&lt;/h1&gt;" style="text;html=1;strokeColor=none;fillColor=none;align=center;verticalAlign=middle;whiteSpace=wrap;rounded=0;" vertex="1" parent="1">
          <mxGeometry x="610" y="20" width="210" height="60" as="geometry" />
        </mxCell>
      </root>
    </mxGraphModel>
  </diagram>
</mxfile>
